<svg xmlns="http://www.w3.org/2000/svg" viewBox="0 0 400 300" width="406" height="306" class="illustration styles_illustrationTablet__1DWOa"><g id="_477_data_storage_outline" data-name="#477_data_storage_outline"><path d="M259.5,151h-74a1,1,0,0,1,0-2h74a1,1,0,0,1,0,2Z" fill="#dfeaef"></path><path d="M259.5,200.19H216.23a1,1,0,0,1-1-1V100.81a1,1,0,0,1,1-1H259.5a1,1,0,0,1,0,2H217.23v96.38H259.5a1,1,0,0,1,0,2Z" fill="#dfeaef"></path><path d="M282.26,87.83l-1.78,3.45h-12a2.56,2.56,0,0,0-2.56,2.56V112.9a2.56,2.56,0,0,0,2.56,2.56h31.3a2.56,2.56,0,0,0,2.56-2.56V88.73a2.56,2.56,0,0,0-2.56-2.56H285A3.07,3.07,0,0,0,282.26,87.83Z" fill="#ffbc0e"></path><path d="M299.79,116.46h-31.3a3.57,3.57,0,0,1-3.56-3.56V93.84a3.57,3.57,0,0,1,3.56-3.56h11.38l1.5-2.91h0a4,4,0,0,1,3.61-2.2h14.81a3.57,3.57,0,0,1,3.56,3.56V112.9A3.57,3.57,0,0,1,299.79,116.46Zm-31.3-24.18a1.56,1.56,0,0,0-1.56,1.56V112.9a1.56,1.56,0,0,0,1.56,1.56h31.3a1.56,1.56,0,0,0,1.56-1.56V88.73a1.56,1.56,0,0,0-1.56-1.56H285a2.06,2.06,0,0,0-1.83,1.12l-1.78,3.45a1,1,0,0,1-.89.54Z" fill="#093f68"></path><path d="M279.41,97.86h-7.74a1,1,0,0,1,0-2h7.74a1,1,0,0,1,0,2Z" fill="#093f68"></path><path d="M282.26,137l-1.78,3.45h-12a2.56,2.56,0,0,0-2.56,2.56v19.05a2.56,2.56,0,0,0,2.56,2.56h31.3a2.56,2.56,0,0,0,2.56-2.56V137.92a2.56,2.56,0,0,0-2.56-2.56H285A3.07,3.07,0,0,0,282.26,137Z" fill="#ffbc0e"></path><path d="M299.79,165.64h-31.3a3.56,3.56,0,0,1-3.56-3.56V143a3.57,3.57,0,0,1,3.56-3.56h11.38l1.5-2.91h0a4,4,0,0,1,3.61-2.2h14.81a3.56,3.56,0,0,1,3.56,3.56v24.16A3.56,3.56,0,0,1,299.79,165.64Zm-31.3-24.17a1.56,1.56,0,0,0-1.56,1.56v19.05a1.56,1.56,0,0,0,1.56,1.56h31.3a1.56,1.56,0,0,0,1.56-1.56V137.92a1.56,1.56,0,0,0-1.56-1.56H285a2.07,2.07,0,0,0-1.83,1.11l-1.78,3.46a1,1,0,0,1-.89.54Z" fill="#093f68"></path><path d="M279.41,147.05h-7.74a1,1,0,0,1,0-2h7.74a1,1,0,0,1,0,2Z" fill="#093f68"></path><path d="M282.26,186.2l-1.78,3.46h-12a2.56,2.56,0,0,0-2.56,2.56v19.05a2.56,2.56,0,0,0,2.56,2.56h31.3a2.56,2.56,0,0,0,2.56-2.56V187.1a2.56,2.56,0,0,0-2.56-2.56H285A3.07,3.07,0,0,0,282.26,186.2Z" fill="#ffbc0e"></path><path d="M299.79,214.83h-31.3a3.57,3.57,0,0,1-3.56-3.56V192.22a3.56,3.56,0,0,1,3.56-3.56h11.38l1.5-2.91h0a4.06,4.06,0,0,1,3.61-2.21h14.81a3.57,3.57,0,0,1,3.56,3.56v24.17A3.57,3.57,0,0,1,299.79,214.83Zm-31.3-24.17a1.56,1.56,0,0,0-1.56,1.56v19.05a1.56,1.56,0,0,0,1.56,1.56h31.3a1.56,1.56,0,0,0,1.56-1.56V187.1a1.56,1.56,0,0,0-1.56-1.56H285a2.06,2.06,0,0,0-1.83,1.12l-1.78,3.46a1,1,0,0,1-.89.54Z" fill="#093f68"></path><path d="M279.41,196.24h-7.74a1,1,0,0,1,0-2h7.74a1,1,0,0,1,0,2Z" fill="#093f68"></path><rect x="102.24" y="96.88" width="74.65" height="90.8" fill="#093f68"></rect><path d="M176.89,188.68H102.24a1,1,0,0,1-1-1V96.88a1,1,0,0,1,1-1h74.65a1,1,0,0,1,1,1v90.8A1,1,0,0,1,176.89,188.68Zm-73.65-2h72.65V97.88H103.24Z" fill="#093f68"></path><rect x="97.65" y="92.7" width="82.98" height="25.37" rx="3.19" fill="#68e1fd"></rect><path d="M177.44,119.07H100.85a4.2,4.2,0,0,1-4.2-4.19v-19a4.2,4.2,0,0,1,4.2-4.2h76.59a4.2,4.2,0,0,1,4.19,4.2v19A4.2,4.2,0,0,1,177.44,119.07ZM100.85,93.7a2.21,2.21,0,0,0-2.2,2.2v19a2.2,2.2,0,0,0,2.2,2.19h76.59a2.19,2.19,0,0,0,2.19-2.19v-19a2.2,2.2,0,0,0-2.19-2.2Z" fill="#093f68"></path><circle cx="167.16" cy="105.39" r="3.55" fill="#093f68"></circle><path d="M139.14,106.39H108.37a1,1,0,0,1,0-2h30.77a1,1,0,0,1,0,2Z" fill="#093f68"></path><rect x="97.65" y="122.44" width="82.98" height="25.37" rx="3.19" fill="#68e1fd"></rect><path d="M177.44,148.81H100.85a4.2,4.2,0,0,1-4.2-4.19v-19a4.21,4.21,0,0,1,4.2-4.2h76.59a4.2,4.2,0,0,1,4.19,4.2v19A4.2,4.2,0,0,1,177.44,148.81Zm-76.59-25.37a2.21,2.21,0,0,0-2.2,2.2v19a2.2,2.2,0,0,0,2.2,2.19h76.59a2.19,2.19,0,0,0,2.19-2.19v-19a2.2,2.2,0,0,0-2.19-2.2Z" fill="#093f68"></path><circle cx="167.16" cy="135.13" r="3.55" fill="#093f68"></circle><path d="M139.14,136.13H108.37a1,1,0,0,1,0-2h30.77a1,1,0,0,1,0,2Z" fill="#093f68"></path><rect x="97.65" y="152.19" width="82.98" height="25.37" rx="3.19" fill="#68e1fd"></rect><path d="M177.44,178.56H100.85a4.21,4.21,0,0,1-4.2-4.2v-19a4.2,4.2,0,0,1,4.2-4.19h76.59a4.2,4.2,0,0,1,4.19,4.19v19A4.2,4.2,0,0,1,177.44,178.56Zm-76.59-25.37a2.2,2.2,0,0,0-2.2,2.19v19a2.21,2.21,0,0,0,2.2,2.2h76.59a2.2,2.2,0,0,0,2.19-2.2v-19a2.19,2.19,0,0,0-2.19-2.19Z" fill="#093f68"></path><circle cx="167.16" cy="164.87" r="3.55" fill="#093f68"></circle><path d="M139.14,165.87H108.37a1,1,0,0,1,0-2h30.77a1,1,0,0,1,0,2Z" fill="#093f68"></path><rect x="97.65" y="181.93" width="82.98" height="25.37" rx="3.19" fill="#68e1fd"></rect><path d="M177.44,208.3H100.85a4.2,4.2,0,0,1-4.2-4.2v-19a4.2,4.2,0,0,1,4.2-4.19h76.59a4.2,4.2,0,0,1,4.19,4.19v19A4.2,4.2,0,0,1,177.44,208.3Zm-76.59-25.37a2.2,2.2,0,0,0-2.2,2.19v19a2.21,2.21,0,0,0,2.2,2.2h76.59a2.2,2.2,0,0,0,2.19-2.2v-19a2.19,2.19,0,0,0-2.19-2.19Z" fill="#093f68"></path><circle cx="167.16" cy="194.61" r="3.55" fill="#093f68"></circle><path d="M139.14,195.61H108.37a1,1,0,0,1,0-2h30.77a1,1,0,0,1,0,2Z" fill="#093f68"></path></g></svg>