<svg id="Layer_1" data-name="Layer 1" xmlns="http://www.w3.org/2000/svg" viewBox="0 0 400 300" width="406" height="306" class="illustration styles_illustrationTablet__1DWOa"><path d="M169.77,62.45s-60,24.43-67,76.17-31.06,60.22-31.06,60.22,72.95,17.35,109.42-9.21,74.58-8.14,84.47-41.58,13.21-52.4-14.12-63.87S169.77,62.45,169.77,62.45Z" fill="#ffd200"></path><path d="M146.45,98.91s-20.77,11.92-22.81,37.79-8.93,61.3-52,62.14c0,0,63.61,15.38,101.36-4.31s87.5-24.81,90.37-43.19-3.88-61.49-3.88-61.49L233,82.23l-45.2-2Z" opacity="0.04"></path><path d="M243.77,62.45s38.32,18.94,46.79,51.08-42.5,56.13-42.5,56.13l-6.89-9.07s46.1-44.74,2.6-60.57C207.25,86.72,243.77,62.45,243.77,62.45Z" fill="#f4a28c"></path><path d="M246.65,63.84s26,11.7,37.66,35l-24.78,17s-2-8.07-14.91-12.07-12-8.7-12-8.7Z" fill="#68e1fd"></path><path d="M246.65,63.84s26,11.7,37.66,35l-24.78,17s-2-8.07-14.91-12.07-12-8.7-12-8.7Z" fill="#fff" opacity="0.34"></path><ellipse cx="209.05" cy="269.9" rx="103.82" ry="11.07" fill="#e6e6e6" opacity="0.45"></ellipse><path d="M213.48,29.32s.86,6.54,0,11a3.32,3.32,0,0,1-3.94,2.57c-2.21-.49-5.07-1.8-6-5.25l-2.22-5.67a5.92,5.92,0,0,1,2.33-6.44C207.24,22.65,213.16,25.31,213.48,29.32Z" fill="#f4a28c"></path><polygon points="201.71 32.95 199.26 54.43 211.2 54.93 208.19 39.1 201.71 32.95" fill="#f4a28c"></polygon><path d="M213.81,33.47l1.95,2.45a1.06,1.06,0,0,1-.59,1.69l-2.5.58Z" fill="#f4a28c"></path><polygon points="173.04 158.41 241.17 160.59 238.74 172.63 175.68 172.63 173.04 158.41" fill="#ffd200"></polygon><path d="M209,42.54a7.83,7.83,0,0,1-4-2.13s.35,3.94,4.86,7.65Z" fill="#ce8172" opacity="0.31"></path><path d="M212.21,29.59a11.52,11.52,0,0,1-1.49.39,10.18,10.18,0,0,0-2.08.7l-.54.23a2.12,2.12,0,0,0-1.26,2c0,2.1-.66,6-5.75,6.4,0,0-5.18-7.75-1-13.71A13.73,13.73,0,0,1,210.49,20C216,19.86,217.48,27.86,212.21,29.59Z" fill="#24285b"></path><path d="M206.73,36.53A1.63,1.63,0,0,0,207,34.9c-.37-.89-1.09-2.06-2.29-1.89s-1.47,2.15-.62,3.45a1.66,1.66,0,0,0,2.68.07Z" fill="#f4a28c"></path><path d="M199.26,54.43l11.94.5s58.26-2.36,45.42,45.09-15.45,60.57-15.45,60.57L173,158.41S126.74,51.8,199.26,54.43Z" fill="#68e1fd"></path><circle cx="208.12" cy="100.02" r="15.83" fill="#fff" opacity="0.34"></circle><path d="M169.77,62.45S131.45,81.39,123,113.53s42.5,56.13,42.5,56.13l6.89-9.07s-46.1-44.74-2.6-60.57C206.29,86.72,169.77,62.45,169.77,62.45Z" fill="#f4a28c"></path><path d="M184.5,94.33s-8.86,40.08,14.81,78.29H175.68L173,158.41s-12.66-32.12-13.71-49.61S184.5,94.33,184.5,94.33Z" opacity="0.08"></path><path d="M169.77,62.45s-20,10-31,21.73l18.51,24.62s31.53-6.72,30.43-24.62S169.77,62.45,169.77,62.45Z" fill="#68e1fd"></path><path d="M169.77,62.45s-20,10-31,21.73l18.51,24.62s31.53-6.72,30.43-24.62S169.77,62.45,169.77,62.45Z" fill="#fff" opacity="0.34"></path><path d="M175.68,172.62l-10,93H173s17-73.09,33.84-77.17,32.49,77.17,32.49,77.17H248l-9.29-93Z" fill="#24285b"></path><path d="M169.77,62.45s33.76-24.86,76.88,1.39C246.65,63.84,192.38,92.94,169.77,62.45Z" fill="#ffd200"></path><path d="M150.34,160.75l11.43-12.7,16.08,16.74a11.27,11.27,0,0,1,3.1,8.86c-.41,4.21-1.81,9.32-6.21,9.5-7.53.32-5-9.41-5-9.41Z" fill="#68e1fd"></path><path d="M263.41,160.75,252,148.05l-14.73,15.34a14.82,14.82,0,0,0-3.66,14.48c.86,2.81,2.46,5.16,5.42,5.28,7.53.32,5-9.41,5-9.41Z" fill="#68e1fd"></path><polygon points="167.64 244.55 181.39 246.52 173.07 268.31 153.49 272.74 164.75 263.55 167.64 244.55" fill="#68e1fd"></polygon><polygon points="247.04 244.28 231.35 246.52 239.66 268.31 259.24 272.74 247.98 263.55 247.04 244.28" fill="#68e1fd"></polygon></svg>